<svg 
          width="24.319414138793945" 
          height="17.448274612426758" fill="none" 
          xmlns="http://www.w3.org/2000/svg">
          <path d="M 23.94668006531558 15.696881405567778 L 18.43359428834404 11.741446243790453 C 19.760898955179822 10.473702186795164 20.4774154390273 8.93059512957225 20.47500034378051 7.345025391009103 C 20.47500034378051 3.295004132265645 15.882421887654267 0 10.237500171890256 0 C 4.592578456126243 0 0 3.295004132265645 0 7.345025391009103 C 0 11.395046649752562 4.592578456126243 14.690050782018206 10.237500171890256 14.690050782018206 C 12.447468089898244 14.691783522981483 14.598251500790479 14.177709610544655 16.365233820182986 13.22541790692326 L 21.87832138529389 17.18085178577714 C 22.157393305787203 17.359833839045127 22.521377538398692 17.455375797920443 22.895549164164425 17.44786279400032 C 23.269720789930158 17.440349790080194 23.625686865949476 17.330351376226574 23.89036976870488 17.14045124351229 C 24.155052671460282 16.95055111079801 24.30836851732687 16.695158698314465 24.31884014605913 16.426704481396293 C 24.329311774791393 16.15825026447812 24.196145343317095 15.897105123030492 23.94668006531558 15.696881405567778 L 23.94668006531558 15.696881405567778 Z M 2.9249999213872613 7.345025391009103 C 2.924999921387264 6.307376300236513 3.353870562561556 5.2930297498562675 4.15737841628765 4.430256034306928 C 4.960886270013744 3.5674823187575884 6.102942660677293 2.895031940294561 7.439127339337477 2.497940793471532 C 8.775312017997662 2.100849646648503 10.245612177859197 1.9969525323100457 11.664098317532744 2.1993878293840243 C 13.082584457206291 2.401823126458003 14.385546512371352 2.9014983154716347 15.4082180580084 3.635227091368662 C 16.430889603645447 4.368955867265689 17.127338480476396 5.303783294370505 17.409492901770616 6.321494311490122 C 17.691647323064835 7.339205328609739 17.546835471604002 8.39409033552537 16.993369626702634 9.352753117166552 C 16.439903781801267 10.311415898807734 15.50264254509438 11.130798858177116 14.30010809612561 11.707285841171098 C 13.09757364715684 12.28377282416508 11.68377600888729 12.591471549048412 10.237500171890256 12.591471549048414 C 8.298818475900301 12.589802762727283 6.44020686651886 12.036518877114794 5.069350947963889 11.05298077111814 C 3.698495029408918 10.069442665121485 2.9273258766208996 8.735957361025529 2.9249999213872613 7.345025391009103 L 2.9249999213872613 7.345025391009103 Z" fill="rgb(255,255,255)"/>
        </svg>